<svg width="270" height="57" viewBox="0 0 270 57" fill="none" xmlns="http://www.w3.org/2000/svg">
<path d="M252.984 42.1641C250.523 42.1641 248.318 41.5534 246.367 40.332C244.417 39.0924 242.885 37.4154 241.773 35.3008C240.661 33.168 240.105 30.7526 240.105 28.0547C240.105 25.3385 240.661 22.9232 241.773 20.8086C242.885 18.694 244.417 17.026 246.367 15.8047C248.318 14.5651 250.533 13.9453 253.012 13.9453C254.944 13.9453 256.712 14.3281 258.316 15.0938C259.939 15.8411 261.333 16.8802 262.5 18.2109L262.855 14.4922H269.746V41.0703C269.746 44.0964 269.081 46.7305 267.75 48.9727C266.437 51.2331 264.578 52.974 262.172 54.1953C259.766 55.4349 256.949 56.0547 253.723 56.0547C249.238 56.0547 245.173 54.651 241.527 51.8438L244.699 45.4453C247.124 47.8333 249.949 49.0273 253.176 49.0273C254.908 49.0273 256.421 48.681 257.715 47.9883C259.027 47.2956 260.048 46.3294 260.777 45.0898C261.525 43.8503 261.898 42.4102 261.898 40.7695V38.5273C260.768 39.6576 259.447 40.5508 257.934 41.207C256.421 41.8451 254.771 42.1641 252.984 42.1641ZM255.008 35.1641C256.284 35.1641 257.441 34.8906 258.48 34.3438C259.52 33.7786 260.349 33.0039 260.969 32.0195C261.589 31.0169 261.898 29.8867 261.898 28.6289V27.4531C261.898 26.1953 261.579 25.0742 260.941 24.0898C260.322 23.1055 259.492 22.3398 258.453 21.793C257.432 21.2279 256.284 20.9453 255.008 20.9453C253.695 20.9453 252.52 21.2552 251.48 21.875C250.441 22.4948 249.621 23.3424 249.02 24.418C248.418 25.4753 248.117 26.6875 248.117 28.0547C248.117 29.4219 248.418 30.6432 249.02 31.7188C249.621 32.7943 250.441 33.6419 251.48 34.2617C252.52 34.8633 253.695 35.1641 255.008 35.1641Z" fill="#5500FF"/>
<path d="M222.195 42.3828C219.388 42.3828 216.872 41.7721 214.648 40.5508C212.424 39.3112 210.674 37.625 209.398 35.4922C208.141 33.3411 207.512 30.8984 207.512 28.1641C207.512 25.4479 208.141 23.0234 209.398 20.8906C210.674 18.7396 212.424 17.0443 214.648 15.8047C216.872 14.5651 219.388 13.9453 222.195 13.9453C225.003 13.9453 227.5 14.5651 229.688 15.8047C231.893 17.0443 233.625 18.7396 234.883 20.8906C236.159 23.0234 236.797 25.4479 236.797 28.1641C236.797 30.8984 236.159 33.3411 234.883 35.4922C233.625 37.625 231.893 39.3112 229.688 40.5508C227.5 41.7721 225.003 42.3828 222.195 42.3828ZM222.168 35.3555C223.426 35.3555 224.547 35.0456 225.531 34.4258C226.534 33.7878 227.318 32.931 227.883 31.8555C228.466 30.7617 228.758 29.5221 228.758 28.1367C228.758 26.7695 228.466 25.5482 227.883 24.4727C227.318 23.3971 226.534 22.5495 225.531 21.9297C224.547 21.2917 223.426 20.9727 222.168 20.9727C220.892 20.9727 219.753 21.2917 218.75 21.9297C217.766 22.5495 216.982 23.3971 216.398 24.4727C215.833 25.5482 215.551 26.7695 215.551 28.1367C215.551 29.5221 215.833 30.7617 216.398 31.8555C216.982 32.931 217.766 33.7878 218.75 34.4258C219.753 35.0456 220.892 35.3555 222.168 35.3555Z" fill="#5500FF"/>
<path d="M206.363 41.8359H179.566V0.820312H187.988V34.4805H206.363V41.8359Z" fill="#5500FF"/>
<path d="M163.188 41.8359H158.703V14.4922H162.641L162.832 19.9063C163.78 18.0286 165.111 16.5703 166.824 15.5312C168.556 14.474 170.543 13.9453 172.785 13.9453C173.277 13.9453 173.779 13.9727 174.289 14.0273C174.799 14.082 175.31 14.1641 175.82 14.2734L175.273 18.3203C174.271 18.0833 173.277 17.9648 172.293 17.9648C170.507 17.9648 168.921 18.4023 167.535 19.2773C166.168 20.1523 165.102 21.3555 164.336 22.8867C163.57 24.418 163.188 26.1771 163.188 28.1641V41.8359Z" fill="#757575"/>
<path d="M150.801 38.4727C147.41 41.0794 143.673 42.3828 139.59 42.3828C136.746 42.3828 134.194 41.7448 131.934 40.4688C129.673 39.1927 127.887 37.4609 126.574 35.2734C125.28 33.0677 124.633 30.5794 124.633 27.8086C124.633 25.1471 125.234 22.7773 126.438 20.6992C127.641 18.6029 129.29 16.9531 131.387 15.75C133.483 14.5469 135.862 13.9453 138.523 13.9453C141.258 13.9453 143.664 14.6016 145.742 15.9141C147.839 17.2266 149.47 19.0495 150.637 21.3828C151.803 23.7161 152.387 26.4141 152.387 29.4766V30.3516H129.5C129.828 31.9557 130.484 33.3503 131.469 34.5352C132.453 35.7201 133.684 36.6406 135.16 37.2969C136.655 37.9531 138.314 38.2812 140.137 38.2812C143.272 38.2812 146.134 37.2513 148.723 35.1914L150.801 38.4727ZM129.336 26.5234H148.148C147.948 24.8281 147.419 23.3516 146.562 22.0938C145.724 20.8177 144.63 19.8242 143.281 19.1133C141.951 18.4023 140.447 18.0469 138.77 18.0469C137.074 18.0469 135.543 18.4023 134.176 19.1133C132.827 19.8242 131.724 20.8177 130.867 22.0938C130.029 23.3516 129.518 24.8281 129.336 26.5234Z" fill="#757575"/>
<path d="M118.918 38.4727C115.527 41.0794 111.79 42.3828 107.707 42.3828C104.863 42.3828 102.311 41.7448 100.051 40.4688C97.7904 39.1927 96.0039 37.4609 94.6914 35.2734C93.3971 33.0677 92.75 30.5794 92.75 27.8086C92.75 25.1471 93.3516 22.7773 94.5547 20.6992C95.7578 18.6029 97.4076 16.9531 99.5039 15.75C101.6 14.5469 103.979 13.9453 106.641 13.9453C109.375 13.9453 111.781 14.6016 113.859 15.9141C115.956 17.2266 117.587 19.0495 118.754 21.3828C119.921 23.7161 120.504 26.4141 120.504 29.4766V30.3516H97.6172C97.9453 31.9557 98.6016 33.3503 99.5859 34.5352C100.57 35.7201 101.801 36.6406 103.277 37.2969C104.772 37.9531 106.431 38.2812 108.254 38.2812C111.389 38.2812 114.251 37.2513 116.84 35.1914L118.918 38.4727ZM97.4531 26.5234H116.266C116.065 24.8281 115.536 23.3516 114.68 22.0938C113.841 20.8177 112.747 19.8242 111.398 19.1133C110.068 18.4023 108.564 18.0469 106.887 18.0469C105.191 18.0469 103.66 18.4023 102.293 19.1133C100.944 19.8242 99.8411 20.8177 98.9844 22.0938C98.1458 23.3516 97.6354 24.8281 97.4531 26.5234Z" fill="#757575"/>
<path d="M77.6562 41.8359H73.1719V14.4922H77.1094L77.3008 19.9063C78.2487 18.0286 79.5794 16.5703 81.293 15.5312C83.0247 14.474 85.0117 13.9453 87.2539 13.9453C87.7461 13.9453 88.2474 13.9727 88.7578 14.0273C89.2682 14.082 89.7786 14.1641 90.2891 14.2734L89.7422 18.3203C88.7396 18.0833 87.7461 17.9648 86.7617 17.9648C84.9753 17.9648 83.3893 18.4023 82.0039 19.2773C80.6367 20.1523 79.5703 21.3555 78.8047 22.8867C78.0391 24.418 77.6562 26.1771 77.6562 28.1641V41.8359Z" fill="#757575"/>
<path d="M65.2148 41.8359H61.3594L61.0586 38.2266C60.056 39.5208 58.7799 40.5417 57.2305 41.2891C55.681 42.0182 53.9492 42.3828 52.0352 42.3828C50.0664 42.3828 48.3073 42 46.7578 41.2344C45.2083 40.4505 43.987 39.3841 43.0938 38.0352C42.2187 36.6862 41.7812 35.1549 41.7812 33.4414C41.7812 31.6367 42.2552 30.0508 43.2031 28.6836C44.1693 27.2982 45.4727 26.2135 47.1133 25.4297C48.7721 24.6458 50.6497 24.2539 52.7461 24.2539C54.1133 24.2539 55.5078 24.4271 56.9297 24.7734C58.3516 25.1016 59.6185 25.5573 60.7305 26.1406V24.9922C60.7305 23.5339 60.3659 22.2943 59.6367 21.2734C58.9076 20.2344 57.9323 19.4414 56.7109 18.8945C55.4896 18.3294 54.1406 18.0469 52.6641 18.0469C51.388 18.0469 50.0846 18.2839 48.7539 18.7578C47.4232 19.2135 46.1471 19.9245 44.9258 20.8906L43.4492 17.0352C45.0352 16.0143 46.7031 15.2487 48.4531 14.7383C50.2031 14.2096 51.9349 13.9453 53.6484 13.9453C56.0182 13.9453 58.0599 14.4284 59.7734 15.3945C61.5052 16.3424 62.8451 17.7005 63.793 19.4688C64.7409 21.2188 65.2148 23.2969 65.2148 25.7031V41.8359ZM52.8281 38.2812C54.2318 38.2812 55.5169 37.9896 56.6836 37.4062C57.8503 36.8229 58.7982 35.9844 59.5273 34.8906C60.2565 33.7786 60.6576 32.4661 60.7305 30.9531V30.4883C59.7279 29.7044 58.5977 29.1029 57.3398 28.6836C56.1003 28.2461 54.8333 28.0273 53.5391 28.0273C51.5156 28.0273 49.8203 28.5195 48.4531 29.5039C47.1042 30.4883 46.4297 31.737 46.4297 33.25C46.4297 34.1979 46.7031 35.0547 47.25 35.8203C47.8151 36.5859 48.5807 37.1875 49.5469 37.625C50.513 38.0625 51.6068 38.2812 52.8281 38.2812Z" fill="#757575"/>
<path d="M36.5859 36.5859C34.7083 38.4818 32.4661 39.9675 29.8594 41.043C27.2526 42.1185 24.4089 42.6563 21.3281 42.6563C18.2474 42.6563 15.4036 42.1276 12.7969 41.0703C10.2083 40.013 7.95703 38.5273 6.04297 36.6133C4.12891 34.681 2.64323 32.4206 1.58594 29.832C0.528646 27.2253 0 24.3906 0 21.3281C0 18.2474 0.528646 15.4128 1.58594 12.8242C2.64323 10.2174 4.12891 7.95703 6.04297 6.04297C7.95703 4.12891 10.2083 2.64323 12.7969 1.58594C15.4036 0.528646 18.2474 0 21.3281 0C24.3906 0 27.2253 0.53776 29.832 1.61328C32.4388 2.67057 34.681 4.14714 36.5586 6.04297L33.1953 9.46094C31.737 7.83854 29.987 6.57162 27.9453 5.66016C25.9036 4.73047 23.6706 4.26563 21.2461 4.26563C18.8945 4.26563 16.7253 4.69401 14.7383 5.55078C12.7513 6.38932 11.0195 7.58333 9.54297 9.13281C8.08464 10.6641 6.94531 12.4688 6.125 14.5469C5.32292 16.625 4.92188 18.8854 4.92188 21.3281C4.92188 23.7891 5.32292 26.0586 6.125 28.1367C6.94531 30.1966 8.08464 32.0013 9.54297 33.5508C11.0195 35.082 12.7513 36.276 14.7383 37.1328C16.7253 37.9714 18.8945 38.3906 21.2461 38.3906C23.6706 38.3906 25.9036 37.9349 27.9453 37.0234C29.987 36.0938 31.737 34.8177 33.1953 33.1953L36.5859 36.5859Z" fill="#757575"/>
</svg>
